<mxfile host="app.diagrams.net" agent="Mozilla/5.0 (X11; Ubuntu; Linux x86_64; rv:141.0) Gecko/20100101 Firefox/141.0" version="28.0.7">
  <diagram name="Page-1" id="XJdK82zvw8SXTq8JCpxd">
    <mxGraphModel dx="946" dy="647" grid="1" gridSize="10" guides="1" tooltips="1" connect="1" arrows="1" fold="1" page="1" pageScale="1" pageWidth="850" pageHeight="1100" math="0" shadow="0">
      <root>
        <mxCell id="0" />
        <mxCell id="1" parent="0" />
        <mxCell id="429fxscXhewv6VkrV5ws-1" value="" style="shape=mxgraph.networks2.icon;aspect=fixed;fillColor=#EDEDED;strokeColor=#000000;gradientColor=#5B6163;network2IconShadow=1;network2bgFillColor=none;network2Icon=mxgraph.networks2.desktop_pc;network2IconXOffset=-0.0034;network2IconYOffset=0.00035;network2IconW=0.453;network2IconH=0.9995;" vertex="1" parent="1">
          <mxGeometry x="340" y="165.55" width="92.65" height="204.42" as="geometry" />
        </mxCell>
        <mxCell id="429fxscXhewv6VkrV5ws-2" value="Host: kieranfn&#xa;IPv4:&amp;nbsp;&#xa;CPU: Ryzen 5 5600&#xa;Ram: 16GB DDR4 32000MHz&#xa;OS: Ubuntu 24.04 LTS" style="text;html=1;align=left;verticalAlign=middle;whiteSpace=wrap;rounded=0;spacing=2;horizontal=1;fontSize=14;" vertex="1" parent="1">
          <mxGeometry x="440" y="165.55" width="190" height="204.45" as="geometry" />
        </mxCell>
        <mxCell id="429fxscXhewv6VkrV5ws-3" value="" style="sketch=0;aspect=fixed;pointerEvents=1;shadow=0;dashed=0;html=1;strokeColor=none;labelPosition=center;verticalLabelPosition=bottom;verticalAlign=top;align=center;shape=mxgraph.mscae.enterprise.website_generic;fillColor=#7D7D7D;" vertex="1" parent="1">
          <mxGeometry x="150" y="450" width="50" height="44" as="geometry" />
        </mxCell>
        <mxCell id="429fxscXhewv6VkrV5ws-6" value="NextJS&lt;br&gt;Domain:" style="text;html=1;align=left;verticalAlign=middle;whiteSpace=wrap;rounded=0;" vertex="1" parent="1">
          <mxGeometry x="145" y="489" width="55" height="54" as="geometry" />
        </mxCell>
        <mxCell id="429fxscXhewv6VkrV5ws-8" value="" style="shape=datastore;whiteSpace=wrap;html=1;" vertex="1" parent="1">
          <mxGeometry x="590" y="434" width="60" height="60" as="geometry" />
        </mxCell>
        <mxCell id="429fxscXhewv6VkrV5ws-9" value="&lt;div&gt;MongoDB&lt;/div&gt;" style="text;html=1;align=center;verticalAlign=middle;whiteSpace=wrap;rounded=0;" vertex="1" parent="1">
          <mxGeometry x="650" y="449" width="60" height="30" as="geometry" />
        </mxCell>
        <mxCell id="429fxscXhewv6VkrV5ws-10" value="" style="endArrow=none;html=1;rounded=0;entryX=0.5;entryY=0;entryDx=0;entryDy=0;exitX=0;exitY=0.25;exitDx=0;exitDy=0;" edge="1" parent="1" source="429fxscXhewv6VkrV5ws-13" target="429fxscXhewv6VkrV5ws-8">
          <mxGeometry width="50" height="50" relative="1" as="geometry">
            <mxPoint x="330" y="360" as="sourcePoint" />
            <mxPoint x="380" y="310" as="targetPoint" />
          </mxGeometry>
        </mxCell>
        <mxCell id="429fxscXhewv6VkrV5ws-11" value="port: 27017" style="edgeLabel;html=1;align=center;verticalAlign=middle;resizable=0;points=[];" vertex="1" connectable="0" parent="429fxscXhewv6VkrV5ws-10">
          <mxGeometry x="-0.1579" relative="1" as="geometry">
            <mxPoint as="offset" />
          </mxGeometry>
        </mxCell>
        <mxCell id="429fxscXhewv6VkrV5ws-12" value="" style="sketch=0;pointerEvents=1;shadow=0;dashed=0;html=1;strokeColor=none;fillColor=#434445;aspect=fixed;labelPosition=center;verticalLabelPosition=bottom;verticalAlign=top;align=center;outlineConnect=0;shape=mxgraph.vvd.cpu;" vertex="1" parent="1">
          <mxGeometry x="340" y="439" width="50" height="50" as="geometry" />
        </mxCell>
        <mxCell id="429fxscXhewv6VkrV5ws-13" value="FastApi" style="text;html=1;align=center;verticalAlign=middle;whiteSpace=wrap;rounded=0;" vertex="1" parent="1">
          <mxGeometry x="390" y="452" width="60" height="30" as="geometry" />
        </mxCell>
        <mxCell id="429fxscXhewv6VkrV5ws-14" value="" style="endArrow=none;html=1;rounded=0;entryX=0.93;entryY=0.5;entryDx=0;entryDy=0;entryPerimeter=0;" edge="1" parent="1" source="429fxscXhewv6VkrV5ws-12" target="429fxscXhewv6VkrV5ws-3">
          <mxGeometry width="50" height="50" relative="1" as="geometry">
            <mxPoint x="330" y="360" as="sourcePoint" />
            <mxPoint x="380" y="310" as="targetPoint" />
          </mxGeometry>
        </mxCell>
        <mxCell id="429fxscXhewv6VkrV5ws-15" value="port: 8000" style="edgeLabel;html=1;align=center;verticalAlign=middle;resizable=0;points=[];" vertex="1" connectable="0" parent="429fxscXhewv6VkrV5ws-14">
          <mxGeometry x="-0.124" y="-3" relative="1" as="geometry">
            <mxPoint as="offset" />
          </mxGeometry>
        </mxCell>
        <mxCell id="429fxscXhewv6VkrV5ws-17" value="Actor" style="shape=umlActor;verticalLabelPosition=bottom;verticalAlign=top;html=1;outlineConnect=0;" vertex="1" parent="1">
          <mxGeometry x="90" y="660" width="30" height="60" as="geometry" />
        </mxCell>
        <mxCell id="429fxscXhewv6VkrV5ws-18" value="" style="endArrow=classic;startArrow=classic;html=1;rounded=0;entryX=0.5;entryY=0;entryDx=0;entryDy=0;entryPerimeter=0;exitX=0.116;exitY=0.857;exitDx=0;exitDy=0;exitPerimeter=0;" edge="1" parent="1" target="429fxscXhewv6VkrV5ws-17">
          <mxGeometry width="50" height="50" relative="1" as="geometry">
            <mxPoint x="160.03999999999996" y="489.94000000000005" as="sourcePoint" />
            <mxPoint x="380" y="420" as="targetPoint" />
          </mxGeometry>
        </mxCell>
        <mxCell id="429fxscXhewv6VkrV5ws-19" value="port: 3000" style="edgeLabel;html=1;align=center;verticalAlign=middle;resizable=0;points=[];" vertex="1" connectable="0" parent="429fxscXhewv6VkrV5ws-18">
          <mxGeometry x="0.1333" y="2" relative="1" as="geometry">
            <mxPoint as="offset" />
          </mxGeometry>
        </mxCell>
      </root>
    </mxGraphModel>
  </diagram>
</mxfile>
